<svg width="48" height="48" fill="none" xmlns="http://www.w3.org/2000/svg"><g clip-path="url(#clip0)"><path d="M41.684 9.474H6.316a5.684 5.684 0 00-5.684 5.684v17.684a5.684 5.684 0 005.684 5.684h35.368a5.684 5.684 0 005.684-5.684V15.158a5.684 5.684 0 00-5.684-5.684z" fill="#fff"/><path d="M41.684 10.105a5.053 5.053 0 015.053 5.053v17.684a5.053 5.053 0 01-5.053 5.053H6.316a5.052 5.052 0 01-5.053-5.053V15.158a5.053 5.053 0 015.053-5.053h35.368zm0-1.263H6.316A6.316 6.316 0 000 15.158v17.684a6.316 6.316 0 006.316 6.316h35.368A6.315 6.315 0 0048 32.842V15.158a6.316 6.316 0 00-6.316-6.316z" fill="#F7F7F7"/><g clip-path="url(#clip1)" fill-rule="evenodd" clip-rule="evenodd"><path d="M34.857 20h-5.314c.286 1.771 2 3.429 3.886 3.429h4.228c.057-.172.057-.4.057-.572A2.83 2.83 0 0034.857 20z" fill="url(#paint0_linear)"/><path d="M30 23.714V28h2.571v-2.286h2.286a2.83 2.83 0 002.686-2H30zM20.857 20v8h2.286s.571 0 .857-.571l2-4h.286V28h2.571v-8h-2.286s-.571.057-.857.571l-2 4h-.285V20h-2.572zM10 28v-8h2.571s.743 0 1.143 1.143c1.029 3.028 1.143 3.428 1.143 3.428s.229-.742 1.143-3.428C16.4 20 17.143 20 17.143 20h2.571v8h-2.571v-4.286h-.286L15.43 28h-1.143l-1.429-4.286h-.286V28H10z" fill="#4DB45F"/></g></g><defs><clipPath id="clip0"><path fill="#fff" d="M0 0h48v48H0z"/></clipPath><clipPath id="clip1"><path fill="#fff" d="M10 20h28v8H10z"/></clipPath><linearGradient id="paint0_linear" x1="29.528" y1="21.714" x2="37.714" y2="21.714" gradientUnits="userSpaceOnUse"><stop stop-color="#00B4E6"/><stop offset="1" stop-color="#088CCB"/></linearGradient></defs></svg>