<svg width="98" height="78" fill="none" xmlns="http://www.w3.org/2000/svg"><path d="M91.526 35.39h-1.458l-7.199-16.15a9.431 9.431 0 00-8.57-5.581l-7.76-.026v-6.03c0-4.116-3.341-7.463-7.447-7.463H7.447C3.34.14 0 3.487 0 7.602v60.346c0 1.058.857 1.914 1.914 1.914h10.897c1.334 4.614 5.596 7.998 10.634 7.998s9.3-3.384 10.634-7.998h32.886c1.333 4.614 5.595 7.998 10.633 7.998 5.038 0 9.3-3.384 10.634-7.998h7.854A1.914 1.914 0 0098 67.948V41.865a6.483 6.483 0 00-6.474-6.476zm2.646 6.475V55.73H66.538V39.217h24.988a2.65 2.65 0 012.646 2.648zm-27.614 24.17H34.485a11.022 11.022 0 00-2.676-6.478h37.425a11.018 11.018 0 00-2.676 6.477zM3.828 55.728v-7.385H62.71v7.385H3.828zm70.459-38.242a5.597 5.597 0 015.086 3.313l6.503 14.59H66.538V17.46l7.749.026zM3.828 7.602a3.63 3.63 0 013.619-3.634h51.645c1.995 0 3.618 1.63 3.618 3.634v36.914H3.828V7.602zm0 51.955h11.253a11.023 11.023 0 00-2.676 6.477H3.828v-6.477zm19.617 14.475a7.245 7.245 0 01-7.238-7.237c0-3.99 3.247-7.238 7.238-7.238 3.991 0 7.238 3.247 7.238 7.238 0 3.99-3.247 7.237-7.238 7.237zm54.153 0c-3.991 0-7.238-3.246-7.238-7.237 0-3.99 3.247-7.238 7.238-7.238 3.991 0 7.238 3.247 7.238 7.238 0 3.99-3.248 7.237-7.238 7.237zm16.574-7.998h-5.534a11.021 11.021 0 00-2.676-6.477h8.21v6.477z" fill="#D7A950"/></svg>