<svg width="80" height="96" fill="none" xmlns="http://www.w3.org/2000/svg"><path d="M75.933 70.727c-2.11-3.267-5.01-5.863-8.408-7.54a1.864 1.864 0 00-1.065-.49 19.614 19.614 0 00-7.71-1.572h-5.625v-4.947a21.507 21.507 0 006.73-10.615h.77c4.135 0 7.5-3.365 7.5-7.5a7.47 7.47 0 00-1.992-5.084 5.588 5.588 0 001.992-4.292 5.634 5.634 0 00-3.814-5.324c-.663-8.622-6.714-15.99-15.046-18.299C48.773 2.485 46.645 0 43.75 0h-7.5c-2.894 0-5.022 2.486-5.515 5.064-8.331 2.31-14.382 9.676-15.045 18.297a5.607 5.607 0 00-2.167 1.35 5.588 5.588 0 00-1.648 3.977c0 1.718.775 3.257 1.993 4.29a7.47 7.47 0 00-1.993 5.084c0 4.136 3.364 7.5 7.5 7.5h.765a21.553 21.553 0 006.735 10.615v4.948H21.25c-2.662 0-5.253.53-7.71 1.572-.41.046-.778.224-1.064.49-3.399 1.677-6.299 4.273-8.41 7.54-2.249 3.485-3.44 7.491-3.44 11.585v11.813A1.874 1.874 0 002.5 96h75c1.036 0 1.875-.84 1.875-1.875V82.312c0-4.094-1.19-8.1-3.442-11.585zM11.875 92.25h-7.5v-9.938c0-5.703 2.922-11.17 7.5-14.414V92.25zm48.75-50.438h-.086c.056-.623.086-1.25.086-1.874v-5.626a3.754 3.754 0 013.75 3.75 3.754 3.754 0 01-3.75 3.75zm-30-32.786v8.412a1.875 1.875 0 103.75 0V6.187c0-1.162.981-2.438 1.875-2.438h7.5c.894 0 1.875 1.276 1.875 2.438v11.249a1.875 1.875 0 103.75 0v-8.41c6.054 2.142 10.425 7.62 11.145 14.036H19.48c.72-6.416 5.09-11.894 11.145-14.037zm-11.25 32.787a3.754 3.754 0 01-3.75-3.75 3.754 3.754 0 013.75-3.75v5.624c0 .626.03 1.252.085 1.876h-.085zm0-11.25H17.5a1.877 1.877 0 01-1.875-1.875c0-.5.195-.972.55-1.326.354-.354.825-.55 1.325-.55h45c1.034 0 1.875.842 1.875 1.875 0 .5-.195.972-.55 1.326-.354.354-.825.55-1.325.55H19.375zm4.09 12.784l-.011-.06a17.293 17.293 0 01-.329-3.35v-5.624h33.75v5.624c0 1.121-.111 2.247-.329 3.348l-.012.061a17.761 17.761 0 01-6.533 10.546C47.067 56.17 43.608 57.375 40 57.375c-3.609 0-7.067-1.205-10.003-3.485a17.78 17.78 0 01-6.531-10.543zm14.66 48.903h-15v-4.313a1.875 1.875 0 10-3.75 0v4.313h-3.75V65.901a15.869 15.869 0 013.75-.915v11.701a1.875 1.875 0 103.75 0V64.876h4.822l10.178 10.688V92.25zm-7.5-30v-3.492A19.703 19.703 0 0040 61.125c3.295 0 6.482-.812 9.375-2.367v3.492L40 72.094l-9.375-9.844zm33.75 30h-3.75v-4.313a1.875 1.875 0 10-3.75 0v4.313h-15V75.562l10.178-10.687h4.822v11.813a1.875 1.875 0 103.75 0V64.986c1.28.15 2.533.457 3.75.916V92.25zm11.25 0h-7.5V67.898c4.578 3.245 7.5 8.711 7.5 14.415v9.937z" fill="#D7A950"/></svg>