<svg width="100" height="98" fill="none" xmlns="http://www.w3.org/2000/svg"><mask id="a" maskUnits="userSpaceOnUse" x="0" y="0" width="100" height="98" fill="#000"><path fill="#fff" d="M0 0h100v98H0z"/><path d="M97.526 12.188c-1.417-4.361-3.337-7.484-3.419-7.616a1.478 1.478 0 00-1.55-.64c-.152.034-3.779.863-7.962 2.907-5.647 2.76-9.592 6.445-11.41 10.653-1.513 3.505-1.73 7.79-.657 12.524a40.5 40.5 0 00-7.66-6.525c-.857-1.656-3.12-5.73-6.659-9.99-1.165-1.402-3.407.357-2.23 1.774a56.098 56.098 0 015.302 7.633L48.193 20.41 35.76 3.81c1.207.016 2.419.13 3.624.362 3.823.732 7.598 2.638 11.224 5.663 1.42 1.185 3.265-.973 1.864-2.141-4.006-3.341-8.223-5.456-12.536-6.282C33.352.15 25.675 1.805 17.73 6.2c-5.921 3.275-9.881 6.873-10.046 7.024-.53.484-.615 1.364-.17 1.93.58 1.166 2.78 5.373 6.443 9.902 2.16 2.67 4.437 4.955 6.792 6.833a33.753 33.753 0 00-1.95 1.727c-3.367 3.223-5.945 7.026-7.637 11.182a31.874 31.874 0 00-2.346 11.696 31.823 31.823 0 005.702 18.574c3.717 5.365 8.913 9.484 15.026 11.912 1.711.678 2.793-1.927 1.08-2.606a30.533 30.533 0 01-6.214-3.347c.245-1.332.815-6.127-2.44-11.091-.455-.695.907-3.422 1.72-5.05.839-1.68 1.705-3.415 2.11-5.05.43-1.735-.054-3.192-1.398-4.215-.986-.75-2.278-1.139-3.416-1.482-.739-.222-1.577-.474-1.876-.719-.617-.505-1.624-2.374-2.433-3.875-.898-1.664-1.753-3.248-2.626-4.224 1.964-4.566 5.12-8.606 9.07-11.697 3.61 2.407 7.728 4.067 12.107 4.404-5.078 3.85-6.72 8.768-4.373 13.492 2.742 5.516 8.385 4.635 13.364 3.858a79.59 79.59 0 012.606-.377c.32-.04.417.046.482.102 1.09.949 1.057 5.482 1.034 8.793-.032 4.579-.062 8.904 1.68 11.125.89 1.132 2.142 1.71 3.609 1.71.88 0 1.835-.207 2.837-.627 4.333-1.817 8.838-7.284 8.15-11.609-.6-3.782-.997-6.28-.06-8.294.866-1.864 2.96-3.59 7.084-5.791.493 2.177.742 4.441.717 6.764-.088 7.93-3.327 15.353-9.118 20.898-6.473 6.198-15.57 9.26-24.57 8.288-1.833-.194-2.15 2.599-.314 2.797 9.85 1.061 19.81-2.29 26.893-9.074 6.34-6.072 9.886-14.196 9.982-22.879.128-11.512-5.907-21.71-15.093-27.586a55.911 55.911 0 004.096-3.135 37.835 37.835 0 018.792 8.625c5.934 8.105 8.287 17.986 6.628 27.824C76.227 83.24 56.56 97.035 35.809 93.679c-10.052-1.625-18.854-6.983-24.788-15.088-5.934-8.105-8.287-17.986-6.627-27.824.298-1.77-2.536-2.235-2.835-.458-1.786 10.58.746 21.205 7.126 29.92 6.38 8.716 15.848 14.478 26.656 16.225a42.46 42.46 0 006.77.546 41.309 41.309 0 0023.8-7.52c8.905-6.246 14.793-15.51 16.577-26.09 1.308-7.752.296-15.53-2.848-22.562a41.919 41.919 0 006.625-2.554c5.646-2.76 9.592-6.444 11.409-10.652 1.818-4.21 1.767-9.547-.147-15.434zm-83.392 38.67c1.07 1.984 2.08 3.859 3.13 4.72.745.608 1.78.92 2.877 1.25 2.808.844 3.134 1.26 2.865 2.346-.33 1.337-1.128 2.933-1.899 4.476-1.484 2.971-2.885 5.777-1.557 7.804a13.162 13.162 0 012.175 7.462C13.167 71.363 9.682 59.433 12.87 48.59c.422.71.867 1.533 1.264 2.269zm69.515-27.637l-4.083-9.685c1.987-1.82 4.292-3.188 6.255-4.152a38.811 38.811 0 014.54-1.87L83.65 23.22zM93.01 8.604c.57 1.2 1.232 2.747 1.797 4.496.62 1.92 1.189 4.299 1.302 6.78l-9.57 3.864 6.471-15.14zm-17.178 9.983c.424-.98.971-1.89 1.604-2.73l4.648 11.025-4.17 9.763a36.89 36.89 0 01-1.863-4.631c-1.175-3.636-2.166-8.918-.22-13.427zm9.205 17.143a38.624 38.624 0 01-4.397 1.821l4.329-10.129 11.018-4.45a13.343 13.343 0 01-.961 3.554c-1.946 4.51-6.507 7.494-9.99 9.204zm-51.81-.8a19.73 19.73 0 01-1.502-.352l15.902-11.41 13.094 2.498c-4.77 3.679-16.378 11.395-27.493 9.263zm-14.532-8.8c-3.4-3.587-5.893-7.424-7.325-9.88l16.663 3.18-9.338 6.7zm2.943-18.763l6.971 9.307-16.77-3.2c2.111-1.631 5.596-4.081 9.799-6.107zm11.128 10.1L24.314 6.184c2.53-1.018 5.247-1.819 8.03-2.175l11.693 15.61-11.27-2.15zm-.894 2.696l11.917 2.273-15.295 10.973c-2.884-1.304-5.48-3.178-7.75-5.262l11.128-7.984zm38.987 27.462c-5.18 2.702-7.716 4.823-8.92 7.411-1.292 2.78-.818 5.762-.163 9.89.387 2.436-2.569 6.969-6.442 8.593-1.433.6-2.454.53-3.035-.212-1.141-1.454-1.11-5.856-1.086-9.392.035-4.892.064-9.118-1.998-10.914-.742-.645-1.69-.918-2.745-.792-.903.11-1.82.253-2.705.392-5.281.823-8.605 1.153-10.327-2.311-2.79-5.612 2.858-9.768 5.415-11.295a9.08 9.08 0 001.453-1.084c6.18-.724 12.02-3.32 17.225-6.57 6.24 3.649 11.03 9.424 13.328 16.284z"/></mask><path d="M97.526 12.188c-1.417-4.361-3.337-7.484-3.419-7.616a1.478 1.478 0 00-1.55-.64c-.152.034-3.779.863-7.962 2.907-5.647 2.76-9.592 6.445-11.41 10.653-1.513 3.505-1.73 7.79-.657 12.524a40.5 40.5 0 00-7.66-6.525c-.857-1.656-3.12-5.73-6.659-9.99-1.165-1.402-3.407.357-2.23 1.774a56.098 56.098 0 015.302 7.633L48.193 20.41 35.76 3.81c1.207.016 2.419.13 3.624.362 3.823.732 7.598 2.638 11.224 5.663 1.42 1.185 3.265-.973 1.864-2.141-4.006-3.341-8.223-5.456-12.536-6.282C33.352.15 25.675 1.805 17.73 6.2c-5.921 3.275-9.881 6.873-10.046 7.024-.53.484-.615 1.364-.17 1.93.58 1.166 2.78 5.373 6.443 9.902 2.16 2.67 4.437 4.955 6.792 6.833a33.753 33.753 0 00-1.95 1.727c-3.367 3.223-5.945 7.026-7.637 11.182a31.874 31.874 0 00-2.346 11.696 31.823 31.823 0 005.702 18.574c3.717 5.365 8.913 9.484 15.026 11.912 1.711.678 2.793-1.927 1.08-2.606a30.533 30.533 0 01-6.214-3.347c.245-1.332.815-6.127-2.44-11.091-.455-.695.907-3.422 1.72-5.05.839-1.68 1.705-3.415 2.11-5.05.43-1.735-.054-3.192-1.398-4.215-.986-.75-2.278-1.139-3.416-1.482-.739-.222-1.577-.474-1.876-.719-.617-.505-1.624-2.374-2.433-3.875-.898-1.664-1.753-3.248-2.626-4.224 1.964-4.566 5.12-8.606 9.07-11.697 3.61 2.407 7.728 4.067 12.107 4.404-5.078 3.85-6.72 8.768-4.373 13.492 2.742 5.516 8.385 4.635 13.364 3.858a79.59 79.59 0 012.606-.377c.32-.04.417.046.482.102 1.09.949 1.057 5.482 1.034 8.793-.032 4.579-.062 8.904 1.68 11.125.89 1.132 2.142 1.71 3.609 1.71.88 0 1.835-.207 2.837-.627 4.333-1.817 8.838-7.284 8.15-11.609-.6-3.782-.997-6.28-.06-8.294.866-1.864 2.96-3.59 7.084-5.791.493 2.177.742 4.441.717 6.764-.088 7.93-3.327 15.353-9.118 20.898-6.473 6.198-15.57 9.26-24.57 8.288-1.833-.194-2.15 2.599-.314 2.797 9.85 1.061 19.81-2.29 26.893-9.074 6.34-6.072 9.886-14.196 9.982-22.879.128-11.512-5.907-21.71-15.093-27.586a55.911 55.911 0 004.096-3.135 37.835 37.835 0 018.792 8.625c5.934 8.105 8.287 17.986 6.628 27.824C76.227 83.24 56.56 97.035 35.809 93.679c-10.052-1.625-18.854-6.983-24.788-15.088-5.934-8.105-8.287-17.986-6.627-27.824.298-1.77-2.536-2.235-2.835-.458-1.786 10.58.746 21.205 7.126 29.92 6.38 8.716 15.848 14.478 26.656 16.225a42.46 42.46 0 006.77.546 41.309 41.309 0 0023.8-7.52c8.905-6.246 14.793-15.51 16.577-26.09 1.308-7.752.296-15.53-2.848-22.562a41.919 41.919 0 006.625-2.554c5.646-2.76 9.592-6.444 11.409-10.652 1.818-4.21 1.767-9.547-.147-15.434zm-83.392 38.67c1.07 1.984 2.08 3.859 3.13 4.72.745.608 1.78.92 2.877 1.25 2.808.844 3.134 1.26 2.865 2.346-.33 1.337-1.128 2.933-1.899 4.476-1.484 2.971-2.885 5.777-1.557 7.804a13.162 13.162 0 012.175 7.462C13.167 71.363 9.682 59.433 12.87 48.59c.422.71.867 1.533 1.264 2.269zm69.515-27.637l-4.083-9.685c1.987-1.82 4.292-3.188 6.255-4.152a38.811 38.811 0 014.54-1.87L83.65 23.22zM93.01 8.604c.57 1.2 1.232 2.747 1.797 4.496.62 1.92 1.189 4.299 1.302 6.78l-9.57 3.864 6.471-15.14zm-17.178 9.983c.424-.98.971-1.89 1.604-2.73l4.648 11.025-4.17 9.763a36.89 36.89 0 01-1.863-4.631c-1.175-3.636-2.166-8.918-.22-13.427zm9.205 17.143a38.624 38.624 0 01-4.397 1.821l4.329-10.129 11.018-4.45a13.343 13.343 0 01-.961 3.554c-1.946 4.51-6.507 7.494-9.99 9.204zm-51.81-.8a19.73 19.73 0 01-1.502-.352l15.902-11.41 13.094 2.498c-4.77 3.679-16.378 11.395-27.493 9.263zm-14.532-8.8c-3.4-3.587-5.893-7.424-7.325-9.88l16.663 3.18-9.338 6.7zm2.943-18.763l6.971 9.307-16.77-3.2c2.111-1.631 5.596-4.081 9.799-6.107zm11.128 10.1L24.314 6.184c2.53-1.018 5.247-1.819 8.03-2.175l11.693 15.61-11.27-2.15zm-.894 2.696l11.917 2.273-15.295 10.973c-2.884-1.304-5.48-3.178-7.75-5.262l11.128-7.984zm38.987 27.462c-5.18 2.702-7.716 4.823-8.92 7.411-1.292 2.78-.818 5.762-.163 9.89.387 2.436-2.569 6.969-6.442 8.593-1.433.6-2.454.53-3.035-.212-1.141-1.454-1.11-5.856-1.086-9.392.035-4.892.064-9.118-1.998-10.914-.742-.645-1.69-.918-2.745-.792-.903.11-1.82.253-2.705.392-5.281.823-8.605 1.153-10.327-2.311-2.79-5.612 2.858-9.768 5.415-11.295a9.08 9.08 0 001.453-1.084c6.18-.724 12.02-3.32 17.225-6.57 6.24 3.649 11.03 9.424 13.328 16.284z" fill="#D7A950"/><path d="M97.526 12.188c-1.417-4.361-3.337-7.484-3.419-7.616a1.478 1.478 0 00-1.55-.64c-.152.034-3.779.863-7.962 2.907-5.647 2.76-9.592 6.445-11.41 10.653-1.513 3.505-1.73 7.79-.657 12.524a40.5 40.5 0 00-7.66-6.525c-.857-1.656-3.12-5.73-6.659-9.99-1.165-1.402-3.407.357-2.23 1.774a56.098 56.098 0 015.302 7.633L48.193 20.41 35.76 3.81c1.207.016 2.419.13 3.624.362 3.823.732 7.598 2.638 11.224 5.663 1.42 1.185 3.265-.973 1.864-2.141-4.006-3.341-8.223-5.456-12.536-6.282C33.352.15 25.675 1.805 17.73 6.2c-5.921 3.275-9.881 6.873-10.046 7.024-.53.484-.615 1.364-.17 1.93.58 1.166 2.78 5.373 6.443 9.902 2.16 2.67 4.437 4.955 6.792 6.833a33.753 33.753 0 00-1.95 1.727c-3.367 3.223-5.945 7.026-7.637 11.182a31.874 31.874 0 00-2.346 11.696 31.823 31.823 0 005.702 18.574c3.717 5.365 8.913 9.484 15.026 11.912 1.711.678 2.793-1.927 1.08-2.606a30.533 30.533 0 01-6.214-3.347c.245-1.332.815-6.127-2.44-11.091-.455-.695.907-3.422 1.72-5.05.839-1.68 1.705-3.415 2.11-5.05.43-1.735-.054-3.192-1.398-4.215-.986-.75-2.278-1.139-3.416-1.482-.739-.222-1.577-.474-1.876-.719-.617-.505-1.624-2.374-2.433-3.875-.898-1.664-1.753-3.248-2.626-4.224 1.964-4.566 5.12-8.606 9.07-11.697 3.61 2.407 7.728 4.067 12.107 4.404-5.078 3.85-6.72 8.768-4.373 13.492 2.742 5.516 8.385 4.635 13.364 3.858a79.59 79.59 0 012.606-.377c.32-.04.417.046.482.102 1.09.949 1.057 5.482 1.034 8.793-.032 4.579-.062 8.904 1.68 11.125.89 1.132 2.142 1.71 3.609 1.71.88 0 1.835-.207 2.837-.627 4.333-1.817 8.838-7.284 8.15-11.609-.6-3.782-.997-6.28-.06-8.294.866-1.864 2.96-3.59 7.084-5.791.493 2.177.742 4.441.717 6.764-.088 7.93-3.327 15.353-9.118 20.898-6.473 6.198-15.57 9.26-24.57 8.288-1.833-.194-2.15 2.599-.314 2.797 9.85 1.061 19.81-2.29 26.893-9.074 6.34-6.072 9.886-14.196 9.982-22.879.128-11.512-5.907-21.71-15.093-27.586a55.911 55.911 0 004.096-3.135 37.835 37.835 0 018.792 8.625c5.934 8.105 8.287 17.986 6.628 27.824C76.227 83.24 56.56 97.035 35.809 93.679c-10.052-1.625-18.854-6.983-24.788-15.088-5.934-8.105-8.287-17.986-6.627-27.824.298-1.77-2.536-2.235-2.835-.458-1.786 10.58.746 21.205 7.126 29.92 6.38 8.716 15.848 14.478 26.656 16.225a42.46 42.46 0 006.77.546 41.309 41.309 0 0023.8-7.52c8.905-6.246 14.793-15.51 16.577-26.09 1.308-7.752.296-15.53-2.848-22.562a41.919 41.919 0 006.625-2.554c5.646-2.76 9.592-6.444 11.409-10.652 1.818-4.21 1.767-9.547-.147-15.434zm-83.392 38.67c1.07 1.984 2.08 3.859 3.13 4.72.745.608 1.78.92 2.877 1.25 2.808.844 3.134 1.26 2.865 2.346-.33 1.337-1.128 2.933-1.899 4.476-1.484 2.971-2.885 5.777-1.557 7.804a13.162 13.162 0 012.175 7.462C13.167 71.363 9.682 59.433 12.87 48.59c.422.71.867 1.533 1.264 2.269zm69.515-27.637l-4.083-9.685c1.987-1.82 4.292-3.188 6.255-4.152a38.811 38.811 0 014.54-1.87L83.65 23.22zM93.01 8.604c.57 1.2 1.232 2.747 1.797 4.496.62 1.92 1.189 4.299 1.302 6.78l-9.57 3.864 6.471-15.14zm-17.178 9.983c.424-.98.971-1.89 1.604-2.73l4.648 11.025-4.17 9.763a36.89 36.89 0 01-1.863-4.631c-1.175-3.636-2.166-8.918-.22-13.427zm9.205 17.143a38.624 38.624 0 01-4.397 1.821l4.329-10.129 11.018-4.45a13.343 13.343 0 01-.961 3.554c-1.946 4.51-6.507 7.494-9.99 9.204zm-51.81-.8a19.73 19.73 0 01-1.502-.352l15.902-11.41 13.094 2.498c-4.77 3.679-16.378 11.395-27.493 9.263zm-14.532-8.8c-3.4-3.587-5.893-7.424-7.325-9.88l16.663 3.18-9.338 6.7zm2.943-18.763l6.971 9.307-16.77-3.2c2.111-1.631 5.596-4.081 9.799-6.107zm11.128 10.1L24.314 6.184c2.53-1.018 5.247-1.819 8.03-2.175l11.693 15.61-11.27-2.15zm-.894 2.696l11.917 2.273-15.295 10.973c-2.884-1.304-5.48-3.178-7.75-5.262l11.128-7.984zm38.987 27.462c-5.18 2.702-7.716 4.823-8.92 7.411-1.292 2.78-.818 5.762-.163 9.89.387 2.436-2.569 6.969-6.442 8.593-1.433.6-2.454.53-3.035-.212-1.141-1.454-1.11-5.856-1.086-9.392.035-4.892.064-9.118-1.998-10.914-.742-.645-1.69-.918-2.745-.792-.903.11-1.82.253-2.705.392-5.281.823-8.605 1.153-10.327-2.311-2.79-5.612 2.858-9.768 5.415-11.295a9.08 9.08 0 001.453-1.084c6.18-.724 12.02-3.32 17.225-6.57 6.24 3.649 11.03 9.424 13.328 16.284z" stroke="#D7A950" mask="url(#a)"/></svg>