<svg width="100" height="98" viewBox="0 0 100 98" fill="none" xmlns="http://www.w3.org/2000/svg">
<mask id="path-1-outside-1" maskUnits="userSpaceOnUse" x="0" y="0" width="100" height="98" fill="black">
<rect fill="white" width="100" height="98"/>
<path d="M97.5258 12.1885C96.1089 7.82673 94.1885 4.70369 94.1071 4.57244C93.7922 4.06443 93.1439 3.80017 92.5566 3.93201C92.4046 3.96599 88.7781 4.79451 84.595 6.83943C78.9476 9.5992 75.0026 13.2836 73.1852 17.4924C71.6725 20.9974 71.4552 25.2824 72.5285 30.0162C70.2424 27.5172 67.6707 25.331 64.8673 23.4906C64.0113 21.8353 61.7479 17.7601 58.2094 13.501C57.0439 12.0988 54.8021 13.8584 55.9796 15.2746C58.3639 18.1451 60.1586 20.9681 61.281 22.9076L48.1933 20.4103L35.7587 3.80896C36.9661 3.82537 38.1777 3.93962 39.3834 4.17107C43.2056 4.90349 46.9811 6.80896 50.6069 9.83357C52.0275 11.0189 53.8724 8.8615 52.4705 7.69255C48.4651 4.35154 44.2478 2.23748 39.9353 1.41072C33.3522 0.14978 25.6743 1.80505 17.7294 6.19959C11.8078 9.47498 7.8479 13.0726 7.68268 13.2238C7.1529 13.7084 7.06849 14.5885 7.51207 15.1545C8.09274 16.3205 10.2933 20.5269 13.9562 25.0556C16.1155 27.7258 18.3926 30.0109 20.7482 31.8888C20.079 32.4379 19.4277 33.0121 18.7973 33.6162C15.4307 36.8394 12.853 40.6416 11.1607 44.7982C9.66472 48.4709 8.86017 52.4219 8.81527 56.4941C8.74104 63.1533 10.7123 69.5758 14.5172 75.0684C18.234 80.4332 23.4301 84.5523 29.5432 86.9799C31.2541 87.6578 32.3358 85.0533 30.6237 84.3736C28.4088 83.4941 26.328 82.3674 24.4088 81.0273C24.6542 79.6949 25.2235 74.8996 21.9694 69.9355C21.5139 69.2412 22.8757 66.5143 23.6887 64.8853C24.5279 63.2066 25.3941 61.4711 25.7988 59.8369C26.2286 58.1008 25.7449 56.6435 24.401 55.6211C23.4145 54.8705 22.1233 54.482 20.9853 54.1392C20.246 53.9166 19.4079 53.6646 19.1086 53.4203C18.492 52.9146 17.4851 51.0461 16.6758 49.5455C15.7779 47.8808 14.923 46.2965 14.0502 45.3209C16.0143 40.7553 19.1691 36.7152 23.12 33.6244C26.7291 36.0308 30.8482 37.6914 35.2265 38.0277C30.149 41.8785 28.5064 46.7963 30.8542 51.5201C33.5959 57.0361 39.2391 56.1549 44.2178 55.3785C45.0793 55.2437 45.9706 55.1049 46.8242 55.0006C47.1445 54.9613 47.2409 55.0469 47.3055 55.1025C48.3956 56.0517 48.3633 60.5851 48.34 63.8957C48.3082 68.4748 48.2783 72.8002 50.0209 75.0209C50.9098 76.1529 52.1616 76.7318 53.6288 76.7318C54.5082 76.7318 55.4636 76.5244 56.4657 76.1037C60.7991 74.2873 65.3037 68.8205 64.6165 64.4951C64.0161 60.7135 63.6186 58.215 64.5555 56.2012C65.4217 54.3373 67.5156 52.6117 71.6396 50.4098C72.1334 52.5865 72.3824 54.8512 72.3567 57.1744C72.2687 65.1045 69.0302 72.5266 63.2385 78.0724C56.7656 84.2705 47.6683 87.3314 38.6692 86.3605C36.8356 86.166 36.5189 88.9586 38.3549 89.1566C48.2053 90.2184 58.1646 86.8668 65.2475 80.0834C71.5887 74.0113 75.1337 65.8867 75.2301 57.2043C75.3582 45.6924 69.3235 35.4935 60.137 29.6183C62.0353 28.2935 63.4492 27.148 64.2334 26.483C67.5827 28.8349 70.5537 31.7324 73.0254 35.108C78.9589 43.2133 81.3121 53.0939 79.6527 62.9318C76.2256 83.2398 56.5591 97.0346 35.8078 93.6789C25.7563 92.0541 16.9536 86.6963 11.02 78.591C5.08585 70.4863 2.73266 60.6045 4.39265 50.7672C4.69076 48.9971 1.85748 48.5324 1.55817 50.309C-0.227526 60.8881 2.30405 71.5141 8.68358 80.2299C15.0643 88.9445 24.5315 94.7066 35.3397 96.4545C37.6001 96.8195 39.8629 97 42.1101 97C50.6045 97 58.8679 94.4184 65.9095 89.4795C74.8153 83.234 80.7027 73.9691 82.4872 63.39C83.7952 55.6381 82.7829 47.8609 79.639 40.8285C81.09 40.4096 83.5593 39.5963 86.2639 38.2744C91.9101 35.5146 95.8557 31.8303 97.6725 27.6215C99.4911 23.4115 99.4402 18.0748 97.5258 12.1885ZM14.134 50.858C15.2032 52.842 16.2143 54.717 17.2648 55.5771C18.0089 56.1859 19.0445 56.4976 20.1406 56.8275C22.9488 57.6725 23.275 58.0873 23.0056 59.1742C22.6752 60.5107 21.8778 62.1068 21.1074 63.6496C19.6234 66.6215 18.222 69.4269 19.5504 71.4543C21.4342 74.3277 21.7569 77.1566 21.7246 78.9162C13.1667 71.3629 9.68208 59.4326 12.8697 48.5892C13.2924 49.2982 13.7366 50.1221 14.134 50.858ZM83.6491 23.2211L79.5659 13.5355C81.5528 11.7168 83.8581 10.348 85.8215 9.38416C87.4941 8.56267 89.0852 7.94861 90.3615 7.51326L83.6491 23.2211ZM93.0104 8.60369C93.5809 9.80369 94.2424 11.3511 94.8075 13.1002C95.427 15.0197 95.9957 17.3986 96.1089 19.8801L86.5399 23.7443L93.0104 8.60369ZM75.8317 18.5875C76.2555 17.6066 76.8033 16.6972 77.436 15.8576L82.0843 26.882L77.9131 36.6449C77.3271 35.4279 76.6369 33.8295 76.0514 32.0137C74.8763 28.3779 73.885 23.0963 75.8317 18.5875ZM85.0367 35.7297C83.427 36.5207 81.891 37.1195 80.6399 37.5513L84.9685 27.4222L95.9868 22.972C95.8269 24.1803 95.5222 25.3779 95.026 26.5263C93.0798 31.0351 88.5195 34.0205 85.0367 35.7297ZM33.2277 34.9293C32.7201 34.832 32.219 34.7131 31.7252 34.5777L47.627 23.1683L60.7207 25.6662C55.9508 29.3447 44.3429 37.0609 33.2277 34.9293ZM18.6949 26.1303C15.2942 22.5426 12.8015 18.7064 11.3702 16.2502L28.0329 19.4301L18.6949 26.1303ZM21.6378 7.36677L28.6093 16.6744L11.8389 13.4746C13.9503 11.8428 17.4354 9.39295 21.6378 7.36677ZM32.7662 17.4678L24.3142 6.18318C26.8446 5.16541 29.5606 4.36443 32.3447 4.00818L44.0371 19.6176L32.7662 17.4678ZM31.8718 20.1625L43.7886 22.4359L28.4944 33.4088C25.6102 32.1051 23.0146 30.2306 20.7434 28.1471L31.8718 20.1625ZM70.859 47.6254C65.6791 50.3265 63.1427 52.4482 61.9395 55.0363C60.647 57.8154 61.1206 60.7984 61.776 64.9269C62.1634 67.3615 59.2074 71.8949 55.3343 73.5185C53.9012 74.1191 52.8805 74.0482 52.2992 73.307C51.1577 71.8527 51.1888 67.4512 51.2133 63.915C51.2475 59.0225 51.2774 54.7973 49.2151 53.0014C48.4734 52.3557 47.5246 52.0826 46.4705 52.2092C45.5671 52.3193 44.6506 52.4623 43.7653 52.6006C38.4836 53.4244 35.1601 53.7543 33.4384 50.2896C30.6489 44.6781 36.2957 40.5215 38.853 38.9951C39.3738 38.6846 39.8569 38.3183 40.3058 37.9105C46.4866 37.1875 52.3268 34.5918 57.5312 31.3404C63.7713 34.9896 68.5614 40.7646 70.859 47.6254Z"/>
</mask>
<path d="M97.5258 12.1885C96.1089 7.82673 94.1885 4.70369 94.1071 4.57244C93.7922 4.06443 93.1439 3.80017 92.5566 3.93201C92.4046 3.96599 88.7781 4.79451 84.595 6.83943C78.9476 9.5992 75.0026 13.2836 73.1852 17.4924C71.6725 20.9974 71.4552 25.2824 72.5285 30.0162C70.2424 27.5172 67.6707 25.331 64.8673 23.4906C64.0113 21.8353 61.7479 17.7601 58.2094 13.501C57.0439 12.0988 54.8021 13.8584 55.9796 15.2746C58.3639 18.1451 60.1586 20.9681 61.281 22.9076L48.1933 20.4103L35.7587 3.80896C36.9661 3.82537 38.1777 3.93962 39.3834 4.17107C43.2056 4.90349 46.9811 6.80896 50.6069 9.83357C52.0275 11.0189 53.8724 8.8615 52.4705 7.69255C48.4651 4.35154 44.2478 2.23748 39.9353 1.41072C33.3522 0.14978 25.6743 1.80505 17.7294 6.19959C11.8078 9.47498 7.8479 13.0726 7.68268 13.2238C7.1529 13.7084 7.06849 14.5885 7.51207 15.1545C8.09274 16.3205 10.2933 20.5269 13.9562 25.0556C16.1155 27.7258 18.3926 30.0109 20.7482 31.8888C20.079 32.4379 19.4277 33.0121 18.7973 33.6162C15.4307 36.8394 12.853 40.6416 11.1607 44.7982C9.66472 48.4709 8.86017 52.4219 8.81527 56.4941C8.74104 63.1533 10.7123 69.5758 14.5172 75.0684C18.234 80.4332 23.4301 84.5523 29.5432 86.9799C31.2541 87.6578 32.3358 85.0533 30.6237 84.3736C28.4088 83.4941 26.328 82.3674 24.4088 81.0273C24.6542 79.6949 25.2235 74.8996 21.9694 69.9355C21.5139 69.2412 22.8757 66.5143 23.6887 64.8853C24.5279 63.2066 25.3941 61.4711 25.7988 59.8369C26.2286 58.1008 25.7449 56.6435 24.401 55.6211C23.4145 54.8705 22.1233 54.482 20.9853 54.1392C20.246 53.9166 19.4079 53.6646 19.1086 53.4203C18.492 52.9146 17.4851 51.0461 16.6758 49.5455C15.7779 47.8808 14.923 46.2965 14.0502 45.3209C16.0143 40.7553 19.1691 36.7152 23.12 33.6244C26.7291 36.0308 30.8482 37.6914 35.2265 38.0277C30.149 41.8785 28.5064 46.7963 30.8542 51.5201C33.5959 57.0361 39.2391 56.1549 44.2178 55.3785C45.0793 55.2437 45.9706 55.1049 46.8242 55.0006C47.1445 54.9613 47.2409 55.0469 47.3055 55.1025C48.3956 56.0517 48.3633 60.5851 48.34 63.8957C48.3082 68.4748 48.2783 72.8002 50.0209 75.0209C50.9098 76.1529 52.1616 76.7318 53.6288 76.7318C54.5082 76.7318 55.4636 76.5244 56.4657 76.1037C60.7991 74.2873 65.3037 68.8205 64.6165 64.4951C64.0161 60.7135 63.6186 58.215 64.5555 56.2012C65.4217 54.3373 67.5156 52.6117 71.6396 50.4098C72.1334 52.5865 72.3824 54.8512 72.3567 57.1744C72.2687 65.1045 69.0302 72.5266 63.2385 78.0724C56.7656 84.2705 47.6683 87.3314 38.6692 86.3605C36.8356 86.166 36.5189 88.9586 38.3549 89.1566C48.2053 90.2184 58.1646 86.8668 65.2475 80.0834C71.5887 74.0113 75.1337 65.8867 75.2301 57.2043C75.3582 45.6924 69.3235 35.4935 60.137 29.6183C62.0353 28.2935 63.4492 27.148 64.2334 26.483C67.5827 28.8349 70.5537 31.7324 73.0254 35.108C78.9589 43.2133 81.3121 53.0939 79.6527 62.9318C76.2256 83.2398 56.5591 97.0346 35.8078 93.6789C25.7563 92.0541 16.9536 86.6963 11.02 78.591C5.08585 70.4863 2.73266 60.6045 4.39265 50.7672C4.69076 48.9971 1.85748 48.5324 1.55817 50.309C-0.227526 60.8881 2.30405 71.5141 8.68358 80.2299C15.0643 88.9445 24.5315 94.7066 35.3397 96.4545C37.6001 96.8195 39.8629 97 42.1101 97C50.6045 97 58.8679 94.4184 65.9095 89.4795C74.8153 83.234 80.7027 73.9691 82.4872 63.39C83.7952 55.6381 82.7829 47.8609 79.639 40.8285C81.09 40.4096 83.5593 39.5963 86.2639 38.2744C91.9101 35.5146 95.8557 31.8303 97.6725 27.6215C99.4911 23.4115 99.4402 18.0748 97.5258 12.1885ZM14.134 50.858C15.2032 52.842 16.2143 54.717 17.2648 55.5771C18.0089 56.1859 19.0445 56.4976 20.1406 56.8275C22.9488 57.6725 23.275 58.0873 23.0056 59.1742C22.6752 60.5107 21.8778 62.1068 21.1074 63.6496C19.6234 66.6215 18.222 69.4269 19.5504 71.4543C21.4342 74.3277 21.7569 77.1566 21.7246 78.9162C13.1667 71.3629 9.68208 59.4326 12.8697 48.5892C13.2924 49.2982 13.7366 50.1221 14.134 50.858ZM83.6491 23.2211L79.5659 13.5355C81.5528 11.7168 83.8581 10.348 85.8215 9.38416C87.4941 8.56267 89.0852 7.94861 90.3615 7.51326L83.6491 23.2211ZM93.0104 8.60369C93.5809 9.80369 94.2424 11.3511 94.8075 13.1002C95.427 15.0197 95.9957 17.3986 96.1089 19.8801L86.5399 23.7443L93.0104 8.60369ZM75.8317 18.5875C76.2555 17.6066 76.8033 16.6972 77.436 15.8576L82.0843 26.882L77.9131 36.6449C77.3271 35.4279 76.6369 33.8295 76.0514 32.0137C74.8763 28.3779 73.885 23.0963 75.8317 18.5875ZM85.0367 35.7297C83.427 36.5207 81.891 37.1195 80.6399 37.5513L84.9685 27.4222L95.9868 22.972C95.8269 24.1803 95.5222 25.3779 95.026 26.5263C93.0798 31.0351 88.5195 34.0205 85.0367 35.7297ZM33.2277 34.9293C32.7201 34.832 32.219 34.7131 31.7252 34.5777L47.627 23.1683L60.7207 25.6662C55.9508 29.3447 44.3429 37.0609 33.2277 34.9293ZM18.6949 26.1303C15.2942 22.5426 12.8015 18.7064 11.3702 16.2502L28.0329 19.4301L18.6949 26.1303ZM21.6378 7.36677L28.6093 16.6744L11.8389 13.4746C13.9503 11.8428 17.4354 9.39295 21.6378 7.36677ZM32.7662 17.4678L24.3142 6.18318C26.8446 5.16541 29.5606 4.36443 32.3447 4.00818L44.0371 19.6176L32.7662 17.4678ZM31.8718 20.1625L43.7886 22.4359L28.4944 33.4088C25.6102 32.1051 23.0146 30.2306 20.7434 28.1471L31.8718 20.1625ZM70.859 47.6254C65.6791 50.3265 63.1427 52.4482 61.9395 55.0363C60.647 57.8154 61.1206 60.7984 61.776 64.9269C62.1634 67.3615 59.2074 71.8949 55.3343 73.5185C53.9012 74.1191 52.8805 74.0482 52.2992 73.307C51.1577 71.8527 51.1888 67.4512 51.2133 63.915C51.2475 59.0225 51.2774 54.7973 49.2151 53.0014C48.4734 52.3557 47.5246 52.0826 46.4705 52.2092C45.5671 52.3193 44.6506 52.4623 43.7653 52.6006C38.4836 53.4244 35.1601 53.7543 33.4384 50.2896C30.6489 44.6781 36.2957 40.5215 38.853 38.9951C39.3738 38.6846 39.8569 38.3183 40.3058 37.9105C46.4866 37.1875 52.3268 34.5918 57.5312 31.3404C63.7713 34.9896 68.5614 40.7646 70.859 47.6254Z" fill="#D7A950"/>
<path d="M97.5258 12.1885C96.1089 7.82673 94.1885 4.70369 94.1071 4.57244C93.7922 4.06443 93.1439 3.80017 92.5566 3.93201C92.4046 3.96599 88.7781 4.79451 84.595 6.83943C78.9476 9.5992 75.0026 13.2836 73.1852 17.4924C71.6725 20.9974 71.4552 25.2824 72.5285 30.0162C70.2424 27.5172 67.6707 25.331 64.8673 23.4906C64.0113 21.8353 61.7479 17.7601 58.2094 13.501C57.0439 12.0988 54.8021 13.8584 55.9796 15.2746C58.3639 18.1451 60.1586 20.9681 61.281 22.9076L48.1933 20.4103L35.7587 3.80896C36.9661 3.82537 38.1777 3.93962 39.3834 4.17107C43.2056 4.90349 46.9811 6.80896 50.6069 9.83357C52.0275 11.0189 53.8724 8.8615 52.4705 7.69255C48.4651 4.35154 44.2478 2.23748 39.9353 1.41072C33.3522 0.14978 25.6743 1.80505 17.7294 6.19959C11.8078 9.47498 7.8479 13.0726 7.68268 13.2238C7.1529 13.7084 7.06849 14.5885 7.51207 15.1545C8.09274 16.3205 10.2933 20.5269 13.9562 25.0556C16.1155 27.7258 18.3926 30.0109 20.7482 31.8888C20.079 32.4379 19.4277 33.0121 18.7973 33.6162C15.4307 36.8394 12.853 40.6416 11.1607 44.7982C9.66472 48.4709 8.86017 52.4219 8.81527 56.4941C8.74104 63.1533 10.7123 69.5758 14.5172 75.0684C18.234 80.4332 23.4301 84.5523 29.5432 86.9799C31.2541 87.6578 32.3358 85.0533 30.6237 84.3736C28.4088 83.4941 26.328 82.3674 24.4088 81.0273C24.6542 79.6949 25.2235 74.8996 21.9694 69.9355C21.5139 69.2412 22.8757 66.5143 23.6887 64.8853C24.5279 63.2066 25.3941 61.4711 25.7988 59.8369C26.2286 58.1008 25.7449 56.6435 24.401 55.6211C23.4145 54.8705 22.1233 54.482 20.9853 54.1392C20.246 53.9166 19.4079 53.6646 19.1086 53.4203C18.492 52.9146 17.4851 51.0461 16.6758 49.5455C15.7779 47.8808 14.923 46.2965 14.0502 45.3209C16.0143 40.7553 19.1691 36.7152 23.12 33.6244C26.7291 36.0308 30.8482 37.6914 35.2265 38.0277C30.149 41.8785 28.5064 46.7963 30.8542 51.5201C33.5959 57.0361 39.2391 56.1549 44.2178 55.3785C45.0793 55.2437 45.9706 55.1049 46.8242 55.0006C47.1445 54.9613 47.2409 55.0469 47.3055 55.1025C48.3956 56.0517 48.3633 60.5851 48.34 63.8957C48.3082 68.4748 48.2783 72.8002 50.0209 75.0209C50.9098 76.1529 52.1616 76.7318 53.6288 76.7318C54.5082 76.7318 55.4636 76.5244 56.4657 76.1037C60.7991 74.2873 65.3037 68.8205 64.6165 64.4951C64.0161 60.7135 63.6186 58.215 64.5555 56.2012C65.4217 54.3373 67.5156 52.6117 71.6396 50.4098C72.1334 52.5865 72.3824 54.8512 72.3567 57.1744C72.2687 65.1045 69.0302 72.5266 63.2385 78.0724C56.7656 84.2705 47.6683 87.3314 38.6692 86.3605C36.8356 86.166 36.5189 88.9586 38.3549 89.1566C48.2053 90.2184 58.1646 86.8668 65.2475 80.0834C71.5887 74.0113 75.1337 65.8867 75.2301 57.2043C75.3582 45.6924 69.3235 35.4935 60.137 29.6183C62.0353 28.2935 63.4492 27.148 64.2334 26.483C67.5827 28.8349 70.5537 31.7324 73.0254 35.108C78.9589 43.2133 81.3121 53.0939 79.6527 62.9318C76.2256 83.2398 56.5591 97.0346 35.8078 93.6789C25.7563 92.0541 16.9536 86.6963 11.02 78.591C5.08585 70.4863 2.73266 60.6045 4.39265 50.7672C4.69076 48.9971 1.85748 48.5324 1.55817 50.309C-0.227526 60.8881 2.30405 71.5141 8.68358 80.2299C15.0643 88.9445 24.5315 94.7066 35.3397 96.4545C37.6001 96.8195 39.8629 97 42.1101 97C50.6045 97 58.8679 94.4184 65.9095 89.4795C74.8153 83.234 80.7027 73.9691 82.4872 63.39C83.7952 55.6381 82.7829 47.8609 79.639 40.8285C81.09 40.4096 83.5593 39.5963 86.2639 38.2744C91.9101 35.5146 95.8557 31.8303 97.6725 27.6215C99.4911 23.4115 99.4402 18.0748 97.5258 12.1885ZM14.134 50.858C15.2032 52.842 16.2143 54.717 17.2648 55.5771C18.0089 56.1859 19.0445 56.4976 20.1406 56.8275C22.9488 57.6725 23.275 58.0873 23.0056 59.1742C22.6752 60.5107 21.8778 62.1068 21.1074 63.6496C19.6234 66.6215 18.222 69.4269 19.5504 71.4543C21.4342 74.3277 21.7569 77.1566 21.7246 78.9162C13.1667 71.3629 9.68208 59.4326 12.8697 48.5892C13.2924 49.2982 13.7366 50.1221 14.134 50.858ZM83.6491 23.2211L79.5659 13.5355C81.5528 11.7168 83.8581 10.348 85.8215 9.38416C87.4941 8.56267 89.0852 7.94861 90.3615 7.51326L83.6491 23.2211ZM93.0104 8.60369C93.5809 9.80369 94.2424 11.3511 94.8075 13.1002C95.427 15.0197 95.9957 17.3986 96.1089 19.8801L86.5399 23.7443L93.0104 8.60369ZM75.8317 18.5875C76.2555 17.6066 76.8033 16.6972 77.436 15.8576L82.0843 26.882L77.9131 36.6449C77.3271 35.4279 76.6369 33.8295 76.0514 32.0137C74.8763 28.3779 73.885 23.0963 75.8317 18.5875ZM85.0367 35.7297C83.427 36.5207 81.891 37.1195 80.6399 37.5513L84.9685 27.4222L95.9868 22.972C95.8269 24.1803 95.5222 25.3779 95.026 26.5263C93.0798 31.0351 88.5195 34.0205 85.0367 35.7297ZM33.2277 34.9293C32.7201 34.832 32.219 34.7131 31.7252 34.5777L47.627 23.1683L60.7207 25.6662C55.9508 29.3447 44.3429 37.0609 33.2277 34.9293ZM18.6949 26.1303C15.2942 22.5426 12.8015 18.7064 11.3702 16.2502L28.0329 19.4301L18.6949 26.1303ZM21.6378 7.36677L28.6093 16.6744L11.8389 13.4746C13.9503 11.8428 17.4354 9.39295 21.6378 7.36677ZM32.7662 17.4678L24.3142 6.18318C26.8446 5.16541 29.5606 4.36443 32.3447 4.00818L44.0371 19.6176L32.7662 17.4678ZM31.8718 20.1625L43.7886 22.4359L28.4944 33.4088C25.6102 32.1051 23.0146 30.2306 20.7434 28.1471L31.8718 20.1625ZM70.859 47.6254C65.6791 50.3265 63.1427 52.4482 61.9395 55.0363C60.647 57.8154 61.1206 60.7984 61.776 64.9269C62.1634 67.3615 59.2074 71.8949 55.3343 73.5185C53.9012 74.1191 52.8805 74.0482 52.2992 73.307C51.1577 71.8527 51.1888 67.4512 51.2133 63.915C51.2475 59.0225 51.2774 54.7973 49.2151 53.0014C48.4734 52.3557 47.5246 52.0826 46.4705 52.2092C45.5671 52.3193 44.6506 52.4623 43.7653 52.6006C38.4836 53.4244 35.1601 53.7543 33.4384 50.2896C30.6489 44.6781 36.2957 40.5215 38.853 38.9951C39.3738 38.6846 39.8569 38.3183 40.3058 37.9105C46.4866 37.1875 52.3268 34.5918 57.5312 31.3404C63.7713 34.9896 68.5614 40.7646 70.859 47.6254Z" stroke="#D7A950" mask="url(#path-1-outside-1)"/>
</svg>
