<svg width="24" height="24" fill="none" xmlns="http://www.w3.org/2000/svg"><path fill-rule="evenodd" clip-rule="evenodd" d="M12 0C5.373 0 0 5.373 0 12s5.373 12 12 12 12-5.373 12-12S18.627 0 12 0zm.977 15.788c-.118.125-.35.15-.35.15h-.764s-1.688.1-3.175-1.42c-1.621-1.657-3.053-4.945-3.053-4.945s-.083-.216.007-.32c.1-.117.375-.125.375-.125l1.829-.011s.172.027.295.117c.103.073.16.21.16.21s.295.734.686 1.398c.765 1.296 1.12 1.58 1.38 1.44.378-.202.264-1.832.264-1.832s.007-.59-.19-.854c-.153-.205-.44-.264-.568-.28-.103-.014.066-.249.285-.354.33-.158.91-.167 1.597-.16.535.005.69.038.898.087.486.115.47.484.438 1.279-.01.238-.021.514-.021.832 0 .072-.002.148-.005.227-.01.407-.024.874.25 1.047.14.089.482.013 1.34-1.415.406-.677.71-1.473.71-1.473s.067-.142.17-.203c.106-.062.249-.043.249-.043l1.924-.012s.579-.068.672.19c.098.268-.216.896-1.002 1.924-.746.976-1.11 1.336-1.076 1.654.024.232.26.442.713.854.945.862 1.199 1.315 1.26 1.424l.011.02c.424.69-.47.744-.47.744l-1.71.023s-.367.072-.85-.254c-.253-.17-.5-.449-.736-.714-.36-.405-.693-.78-.976-.69-.477.148-.462 1.155-.462 1.155s.003.216-.105.33z" fill="#D7A950"/></svg>