<svg width="48" height="48" fill="none" xmlns="http://www.w3.org/2000/svg"><g clip-path="url(#clip0)"><path d="M41.684 9.474H6.316a5.684 5.684 0 00-5.684 5.684v17.684a5.684 5.684 0 005.684 5.684h35.368a5.684 5.684 0 005.684-5.684V15.158a5.684 5.684 0 00-5.684-5.684z" fill="#fff"/><path d="M41.684 10.105a5.053 5.053 0 015.053 5.053v17.684a5.053 5.053 0 01-5.053 5.053H6.316a5.052 5.052 0 01-5.053-5.053V15.158a5.053 5.053 0 015.053-5.053h35.368zm0-1.263H6.316A6.316 6.316 0 000 15.158v17.684a6.316 6.316 0 006.316 6.316h35.368A6.315 6.315 0 0048 32.842V15.158a6.316 6.316 0 00-6.316-6.316z" fill="#F7F7F7"/><path d="M18 22.435c0-.955.074-1.56 1.909-3.036C21.429 18.175 26.297 14 26.297 14v6.968H30v10.03H19.157a1.12 1.12 0 01-.817-.365 1.3 1.3 0 01-.34-.88v-7.318z" fill="#FFCF01"/><path d="M26.297 20.97v4.037l-6.804 4.995 8.603-3.016v-6.017h-1.799z" fill="#D3AB07"/><path d="M23.188 20.76c.397-.51.979-.69 1.298-.402.32.288.255.937-.143 1.447s-.978.691-1.298.403c-.32-.289-.255-.934.143-1.447z" fill="#231F20"/></g><defs><clipPath id="clip0"><path fill="#fff" d="M0 0h48v48H0z"/></clipPath></defs></svg>