<svg width="48" height="48" fill="none" xmlns="http://www.w3.org/2000/svg"><g clip-path="url(#clip0)"><path d="M41.684 9.474H6.316a5.684 5.684 0 00-5.684 5.684v17.684a5.684 5.684 0 005.684 5.684h35.368a5.684 5.684 0 005.684-5.684V15.158a5.684 5.684 0 00-5.684-5.684z" fill="#fff"/><path d="M41.684 10.105a5.053 5.053 0 015.053 5.053v17.684a5.053 5.053 0 01-5.053 5.053H6.316a5.052 5.052 0 01-5.053-5.053V15.158a5.053 5.053 0 015.053-5.053h35.368zm0-1.263H6.316A6.316 6.316 0 000 15.158v17.684a6.316 6.316 0 006.316 6.316h35.368A6.315 6.315 0 0048 32.842V15.158a6.316 6.316 0 00-6.316-6.316z" fill="#F7F7F7"/><path d="M34.497 24A6 6 0 0124 27.966a5.987 5.987 0 000-7.932A6 6 0 0134.497 24z" fill="#F79E1B"/><path d="M24 27.966c.83 0 1.503-1.776 1.503-3.966 0-2.19-.673-3.966-1.503-3.966-.83 0-1.503 1.776-1.503 3.966 0 2.19.673 3.966 1.503 3.966z" fill="#FF5F00"/><path d="M22.497 24A6.013 6.013 0 0024 27.966a6 6 0 110-7.932A6.013 6.013 0 0022.497 24z" fill="#EB001B"/></g><defs><clipPath id="clip0"><path fill="#fff" d="M0 0h48v48H0z"/></clipPath></defs></svg>