<svg width="24" height="24" fill="none" xmlns="http://www.w3.org/2000/svg"><path fill-rule="evenodd" clip-rule="evenodd" d="M17.4 20C10.011 20 4 13.988 4 6.6a2.602 2.602 0 012.927-2.579l1.061 4.621-.409.213-.129.068c-.862.45-1.542.806-1.185 1.591 1.176 3.346 3.875 6.046 7.181 7.206.843.338 1.17-.287 1.621-1.152l.006-.011.159-.303.126-.242 4.62 1.06A2.602 2.602 0 0117.4 20zm4.351-4.092a1 1 0 00-.72-.646l-5.965-1.369a1.001 1.001 0 00-.916.253c-.143.136-.146.14-.796 1.381a9.949 9.949 0 01-4.879-4.883c1.24-.649 1.242-.652 1.38-.794a1 1 0 00.252-.916L8.738 2.97a1.002 1.002 0 00-.647-.722 4.375 4.375 0 00-.725-.183A4.605 4.605 0 002 6.6C2 15.092 8.908 22 17.4 22c2.536 0 4.6-2.063 4.6-4.6 0-.258-.023-.513-.065-.761a4.299 4.299 0 00-.184-.731zM13 8c1.654 0 3 1.346 3 3a1 1 0 102 0c0-2.757-2.243-5-5-5a1 1 0 100 2zm7 3c0-3.859-3.141-7-7-7a1 1 0 110-2c4.963 0 9 4.037 9 9a1 1 0 11-2 0z" fill="#D7A950"/></svg>