<svg width="48" height="48" fill="none" xmlns="http://www.w3.org/2000/svg"><g clip-path="url(#clip0)"><path d="M41.684 9.474H6.316a5.684 5.684 0 00-5.684 5.684v17.684a5.684 5.684 0 005.684 5.684h35.368a5.684 5.684 0 005.684-5.684V15.158a5.684 5.684 0 00-5.684-5.684z" fill="#fff"/><path d="M41.684 10.105a5.053 5.053 0 015.053 5.053v17.684a5.053 5.053 0 01-5.053 5.053H6.316a5.052 5.052 0 01-5.053-5.053V15.158a5.053 5.053 0 015.053-5.053h35.368zm0-1.263H6.316A6.316 6.316 0 000 15.158v17.684a6.316 6.316 0 006.316 6.316h35.368A6.315 6.315 0 0048 32.842V15.158a6.316 6.316 0 00-6.316-6.316z" fill="#F7F7F7"/><g clip-path="url(#clip1)"><path d="M29.95 27.11c.05.349-.057.496-.166.496-.11 0-.267-.142-.443-.423s-.236-.594-.151-.755a.24.24 0 01.326-.094c.29.112.404.566.434.776zm-1.605.765c.349.301.454.66.27.912a.57.57 0 01-.466.214.819.819 0 01-.533-.197c-.316-.282-.409-.742-.202-1.002a.457.457 0 01.37-.158.875.875 0 01.561.231zm-.581 2.908c1.498 0 3.123.525 4.922 2.158.18.163.42-.04.263-.243-1.768-2.285-3.407-2.721-5.034-3.089-1.994-.45-3.02-1.6-3.735-2.862-.142-.251-.207-.207-.22.116-.014.48.02.959.098 1.43h-.242a5.08 5.08 0 01-2.87-.891 5.266 5.266 0 01-1.904-2.375 5.41 5.41 0 01-.294-3.057c.2-1.027.692-1.97 1.414-2.71a5.129 5.129 0 012.646-1.448 5.053 5.053 0 012.985.301 5.196 5.196 0 012.319 1.95c.567.87.87 1.892.87 2.939 0 .206-.01.411-.033.615a7.534 7.534 0 00-1.64-.031c-.197.017-.169.116-.021.138 1.703.315 2.882 1.396 3.15 3.367 0 .01.005.02.011.027a.047.047 0 00.025.015.045.045 0 00.05-.022 8.165 8.165 0 001.055-5.047 8.087 8.087 0 00-2.172-4.658 7.752 7.752 0 00-4.495-2.332 7.66 7.66 0 00-4.952.962 7.946 7.946 0 00-3.348 3.858 8.187 8.187 0 00-.354 5.149 8.02 8.02 0 002.787 4.3 7.698 7.698 0 004.77 1.664c1.145.002 2.282-.226 3.954-.226l-.005.002z" fill="#FF8C00"/></g></g><defs><clipPath id="clip0"><path fill="#fff" d="M0 0h48v48H0z"/></clipPath><clipPath id="clip1"><path fill="#fff" d="M16 15h17v18H16z"/></clipPath></defs></svg>