<svg width="100" height="80" fill="none" xmlns="http://www.w3.org/2000/svg"><path d="M99.27 22.598L77.248.571a1.945 1.945 0 00-2.711-.04c-1.71 1.61-9.75 9.182-9.866 9.295l-.022.02c-1.904 1.904-3.779 2.753-6.078 2.753-4.702 0-8.304 1.328-11.295 4.16-2.453-2.322-5.232-3.523-9.112-3.924L28.43 3.101a1.947 1.947 0 00-2.753 0L.729 28.05a1.943 1.943 0 00-.043 2.706l.043.047s16.234 16.21 16.257 16.231l-.687.688a6.81 6.81 0 000 9.636 6.79 6.79 0 004.889 1.99 6.762 6.762 0 001.995 4.894 6.784 6.784 0 004.888 1.99 6.762 6.762 0 001.995 4.893 6.788 6.788 0 004.889 1.989 6.761 6.761 0 001.995 4.895 6.821 6.821 0 009.635 0l.69-.69.688.69a6.821 6.821 0 009.636 0 6.767 6.767 0 001.996-4.891 6.762 6.762 0 004.888-1.993 6.792 6.792 0 001.991-4.89 6.761 6.761 0 004.892-1.993 6.76 6.76 0 001.995-4.895 6.81 6.81 0 004.89-11.625l-.688-.687c13.575-13.56-3.597 3.626 21.708-21.683.76-.76.76-1.992 0-2.753zM4.86 29.425L27.054 7.232l7.48 7.48-22.19 22.192-7.484-7.479zm14.192 25.179a2.92 2.92 0 010-4.13l6.884-6.884a2.924 2.924 0 014.13 0 2.917 2.917 0 010 4.13l-6.883 6.883a2.928 2.928 0 01-4.131 0zm6.884 6.884a2.918 2.918 0 010-4.131l6.883-6.883a2.918 2.918 0 014.13 0 2.918 2.918 0 010 4.129v.001l-6.884 6.884a2.923 2.923 0 01-4.13 0zm6.883 6.882a2.918 2.918 0 010-4.13l6.884-6.883a2.923 2.923 0 014.13.001 2.918 2.918 0 010 4.129h-.002l-6.88 6.882a2.927 2.927 0 01-4.133 0zm6.884 6.885a2.918 2.918 0 010-4.131l6.882-6.883a2.918 2.918 0 014.13 0 2.92 2.92 0 010 4.13l-6.883 6.884a2.925 2.925 0 01-4.13 0zm15.142 0a2.923 2.923 0 01-4.129 0l-.689-.69 3.442-3.441c.233-.233.443-.482.638-.74l.737.739h.002v.001a2.918 2.918 0 010 4.13zm20.652-20.652a2.927 2.927 0 01-4.131 0l-8.948-8.948a1.947 1.947 0 00-2.754 2.753l8.949 8.95a2.917 2.917 0 010 4.13 2.918 2.918 0 01-4.13 0l-8.948-8.95a1.948 1.948 0 00-2.754 2.753l8.949 8.95a2.923 2.923 0 010 4.129 2.9 2.9 0 01-2.066.855c-1.85 0-2.447-1.457-4.201-2.99a6.761 6.761 0 00-1.993-4.746 6.76 6.76 0 00-4.89-1.997 6.759 6.759 0 00-1.995-4.89 6.792 6.792 0 00-4.888-1.99 6.806 6.806 0 00-6.883-6.886 6.763 6.763 0 00-1.995-4.89 6.82 6.82 0 00-9.636 0l-3.444 3.444-4.639-4.625 22.914-22.918c2.838.324 4.748 1.14 6.5 2.768l-5.501 5.5c-3.034 3.036-3.034 7.976 0 11.014 3.037 3.034 7.978 3.035 11.014 0l5.508-5.508 19.961 19.964a2.922 2.922 0 01.001 4.128zm-.688-10.323L58.29 27.758l1.376-1.376a1.947 1.947 0 10-2.754-2.754l-9.637 9.638a3.9 3.9 0 01-5.507 0 3.902 3.902 0 01-.001-5.508l7.928-7.926c2.31-2.309 5.047-3.34 8.875-3.34 2.754 0 5.132-.827 7.36-2.579l19.385 19.89L74.81 44.28zM88.07 31.05L68.801 11.282 75.83 4.66l19.311 19.315-7.073 7.074z" fill="#D7A950"/></svg>