<svg width="64" height="23" fill="none" xmlns="http://www.w3.org/2000/svg"><path d="M8.614 8.89c2.96 0 5.14.59 6.54 1.77 1.42 1.18 2.13 2.76 2.13 4.74 0 1.28-.32 2.45-.96 3.51-.64 1.04-1.62 1.88-2.94 2.52-1.3.62-2.91.93-4.83.93-1.48 0-2.94-.19-4.38-.57-1.42-.4-2.63-.96-3.63-1.68l1.92-3.72c.8.6 1.72 1.07 2.76 1.41 1.04.32 2.11.48 3.21.48 1.22 0 2.18-.24 2.88-.72.7-.48 1.05-1.15 1.05-2.01 0-.9-.37-1.58-1.11-2.04-.72-.46-1.98-.69-3.78-.69h-5.37L3.184 1h12.81v3.9h-8.76l-.33 3.99h1.71zm19.642 13.47c-1.74 0-3.29-.43-4.65-1.29-1.36-.86-2.43-2.1-3.21-3.72-.76-1.64-1.14-3.59-1.14-5.85s.38-4.2 1.14-5.82c.78-1.64 1.85-2.89 3.21-3.75 1.36-.86 2.91-1.29 4.65-1.29 1.74 0 3.29.43 4.65 1.29 1.36.86 2.42 2.11 3.18 3.75.78 1.62 1.17 3.56 1.17 5.82 0 2.26-.39 4.21-1.17 5.85-.76 1.62-1.82 2.86-3.18 3.72-1.36.86-2.91 1.29-4.65 1.29zm0-4.11c1.28 0 2.28-.55 3-1.65.74-1.1 1.11-2.8 1.11-5.1s-.37-4-1.11-5.1c-.72-1.1-1.72-1.65-3-1.65-1.26 0-2.26.55-3 1.65-.72 1.1-1.08 2.8-1.08 5.1s.36 4 1.08 5.1c.74 1.1 1.74 1.65 3 1.65zm16.221-5.91c-1.54 0-2.8-.52-3.78-1.56-.96-1.06-1.44-2.47-1.44-4.23 0-1.76.48-3.16 1.44-4.2.98-1.06 2.24-1.59 3.78-1.59 1.54 0 2.79.53 3.75 1.59.96 1.04 1.44 2.44 1.44 4.2 0 1.76-.48 3.17-1.44 4.23-.96 1.04-2.21 1.56-3.75 1.56zM56.987 1h3.57l-14.34 21h-3.57l14.34-21zm-12.51 8.88c.68 0 1.21-.28 1.59-.84.4-.56.6-1.39.6-2.49 0-1.1-.2-1.93-.6-2.49-.38-.56-.91-.84-1.59-.84-.66 0-1.19.29-1.59.87-.4.56-.6 1.38-.6 2.46s.2 1.91.6 2.49c.4.56.93.84 1.59.84zm14.25 12.36c-1 0-1.9-.23-2.7-.69-.78-.48-1.39-1.16-1.83-2.04-.44-.88-.66-1.9-.66-3.06 0-1.16.22-2.18.66-3.06.44-.88 1.05-1.55 1.83-2.01.8-.48 1.7-.72 2.7-.72 1.54 0 2.79.53 3.75 1.59.98 1.04 1.47 2.44 1.47 4.2 0 1.76-.49 3.17-1.47 4.23-.96 1.04-2.21 1.56-3.75 1.56zm0-2.46c.68 0 1.21-.28 1.59-.84.4-.58.6-1.41.6-2.49 0-1.08-.2-1.9-.6-2.46-.38-.58-.91-.87-1.59-.87-.66 0-1.19.28-1.59.84-.4.56-.6 1.39-.6 2.49 0 1.1.2 1.93.6 2.49.4.56.93.84 1.59.84z" fill="#D7A950"/></svg>