<svg width="80" height="95" fill="none" xmlns="http://www.w3.org/2000/svg"><path d="M74.623 59.387l-3.01-6.019a33.768 33.768 0 001.635-3.907l6.37-2.124V29.901l-6.37-2.124a33.507 33.507 0 00-1.635-3.907l3.013-6.025L62.297 5.517 56.273 8.53a33.51 33.51 0 00-3.907-1.635L50.242.524H32.806L30.68 6.895a33.502 33.502 0 00-3.907 1.635L20.75 5.517 8.422 17.845l3.012 6.025A33.513 33.513 0 009.8 27.777L3.428 29.9v17.435L9.8 49.459a33.434 33.434 0 001.618 3.876l-1.96 3.57H.381V87.38h10.666v-4.57h11.56l4.572 4.571h8.25v1.524A6.101 6.101 0 0041.523 95a6.101 6.101 0 006.095-6.095V87.38h10.668a4.577 4.577 0 004.572-4.571 4.542 4.542 0 00-1.189-3.048 4.535 4.535 0 001.188-3.048 4.542 4.542 0 00-1.188-3.047 4.54 4.54 0 001.119-2.351l11.834-11.929zm-60.13-6.728a30.509 30.509 0 01-2.033-4.862l-.235-.74-5.749-1.918V32.098l5.75-1.916.232-.742a30.272 30.272 0 012.033-4.861l.359-.69-2.72-5.442 9.22-9.22 5.442 2.72.69-.358a30.323 30.323 0 014.86-2.034l.743-.233 1.919-5.75h13.041l1.916 5.749.742.233a30.26 30.26 0 014.86 2.032l.691.36 5.442-2.721 9.22 9.22-2.72 5.442.358.69a30.33 30.33 0 012.034 4.861l.233.742 5.75 1.92v13.04l-5.749 1.917-.234.74a30.5 30.5 0 01-2.034 4.862l-.358.69 2.724 5.446-9.005 9.073a4.74 4.74 0 00-.245-.296 4.535 4.535 0 001.188-3.048c0-2.377-1.83-4.313-4.15-4.53 6.464-5.18 10.244-12.955 10.244-21.375 0-15.123-12.305-27.428-27.428-27.428-15.124 0-27.429 12.305-27.429 27.428a27.44 27.44 0 0010.202 21.334H11.263l3.606-6.571-.376-.723zm45.318 24.055c0 .841-.685 1.524-1.524 1.524H46.095c-.84 0-1.524-.683-1.524-1.524 0-.84.685-1.523 1.524-1.523h12.192c.84 0 1.524.683 1.524 1.523zM37.845 38.62h7.357l2.417-2.416v-6.727a3.05 3.05 0 013.048 3.048v6.988l-5.203 5.202h-7.88l-5.203-5.202v-6.988a3.05 3.05 0 013.047-3.048v6.727l2.417 2.416zm.631 9.143h6.095v6.095h-6.095v-6.095zm9.143-.893l6.095-6.095v-8.25a6.101 6.101 0 00-6.095-6.095H44.57v8.512l-.63.63h-4.834l-.63-.63V26.43h-3.048a6.101 6.101 0 00-6.096 6.095v8.25l6.096 6.095v6.988h-3.68l-.095.096c-5.203-3.357-8.416-9.112-8.416-15.334 0-10.083 8.202-18.286 18.286-18.286 10.083 0 18.285 8.203 18.285 18.286 0 6.176-3.085 11.833-8.25 15.238h-3.94V46.87zm15.238-8.25c0-11.764-9.57-21.333-21.333-21.333-11.764 0-21.334 9.569-21.334 21.333 0 7.039 3.502 13.592 9.245 17.553l-2.194 2.194A24.39 24.39 0 0117.143 38.62c0-13.442 10.938-24.38 24.38-24.38 13.443 0 24.382 10.938 24.382 24.38 0 7.53-3.404 14.48-9.216 19.086a4.537 4.537 0 00-1.518-2.712 21.192 21.192 0 007.686-16.374zM58.287 63c.84 0 1.524.683 1.524 1.524 0 .84-.685 1.524-1.524 1.524H46.095c-.84 0-1.524-.683-1.524-1.524 0-.84.685-1.524 1.524-1.524h12.192zm-12.192 9.143c-.84 0-1.524-.683-1.524-1.524 0-.84.685-1.524 1.524-1.524h12.192c.84 0 1.524.683 1.524 1.524 0 .84-.685 1.524-1.524 1.524H46.095zM8 84.333H3.428v-24.38H8v24.38zm20.44 0l-4.571-4.571H11.047V63h15.87l6.095-6.095H52.19c.84 0 1.524.683 1.524 1.524 0 .84-.684 1.523-1.524 1.523H36.321l-6.541 6.542 2.154 2.155 3.494-3.494v19.178H28.44zm13.084 7.62a3.05 3.05 0 01-3.048-3.048V63h3.328c-.17.478-.28.987-.28 1.524a4.54 4.54 0 001.188 3.047 4.535 4.535 0 00-1.188 3.048c0 1.175.458 2.237 1.188 3.048a4.535 4.535 0 00-1.188 3.047c0 1.175.458 2.237 1.188 3.048a4.535 4.535 0 00-1.188 3.048c0 1.983 1.278 3.66 3.047 4.29v1.805a3.05 3.05 0 01-3.047 3.047zm16.763-7.62H46.095c-.84 0-1.524-.683-1.524-1.523 0-.841.685-1.524 1.524-1.524h12.192c.84 0 1.524.683 1.524 1.524 0 .84-.685 1.523-1.524 1.523z" fill="#D7A950"/></svg>