<svg width="48" height="48" fill="none" xmlns="http://www.w3.org/2000/svg"><g clip-path="url(#clip0)"><path d="M41.684 9.474H6.316a5.684 5.684 0 00-5.684 5.684v17.684a5.684 5.684 0 005.684 5.684h35.368a5.684 5.684 0 005.684-5.684V15.158a5.684 5.684 0 00-5.684-5.684z" fill="#fff"/><path d="M41.684 10.105a5.053 5.053 0 015.053 5.053v17.684a5.053 5.053 0 01-5.053 5.053H6.316a5.052 5.052 0 01-5.053-5.053V15.158a5.053 5.053 0 015.053-5.053h35.368zm0-1.263H6.316A6.316 6.316 0 000 15.158v17.684a6.316 6.316 0 006.316 6.316h35.368A6.315 6.315 0 0048 32.842V15.158a6.316 6.316 0 00-6.316-6.316z" fill="#F7F7F7"/><path d="M19.907 19.654l-3.625 8.704h-2.387l-1.756-6.884a.948.948 0 00-.53-.771 9.717 9.717 0 00-2.198-.745v-.253h3.79a1.061 1.061 0 011.035.897l.935 5.052 2.324-5.924 2.412-.076zm9.26 5.862c0-2.287-3.159-2.413-3.133-3.449 0-.303.303-.644.947-.72a4.193 4.193 0 012.21.38l.392-1.845a6.226 6.226 0 00-2.097-.38c-2.21 0-3.789 1.176-3.789 2.88 0 1.264 1.111 1.946 1.958 2.363.846.417 1.162.707 1.162 1.086 0 .581-.695.834-1.339.847a4.624 4.624 0 01-2.299-.544l-.442 1.908c.806.31 1.663.464 2.526.455 2.35 0 3.878-1.163 3.89-2.981h.013zm5.823 2.842h2.058l-1.793-8.704H33.36a1.036 1.036 0 00-.96.645l-3.347 8.059h2.35l.454-1.264h2.867l.266 1.264zm-2.527-3.082l1.188-3.26.707 3.247-1.895.013zm-9.398-5.622l-1.844 8.704h-2.198l1.845-8.704h2.197z" fill="#122A96"/></g><defs><clipPath id="clip0"><path fill="#fff" d="M0 0h48v48H0z"/></clipPath></defs></svg>